<?xml version="1.0" encoding="UTF-8" standalone="no"?>
<!DOCTYPE svg PUBLIC "-//W3C//DTD SVG 1.1//EN" "http://www.w3.org/Graphics/SVG/1.1/DTD/svg11.dtd">
<svg width="100%" height="100%" viewBox="0 0 100 100" version="1.1" xmlns="http://www.w3.org/2000/svg" xmlns:xlink="http://www.w3.org/1999/xlink" xml:space="preserve" xmlns:serif="http://www.serif.com/" style="fill-rule:evenodd;clip-rule:evenodd;stroke-linejoin:round;stroke-miterlimit:1.41421;">
    <g id="Model-Derivative" serif:id="Model Derivative" transform="matrix(1,0,0,1,17.0004,9.67567)">
        <g id="Fill-1" transform="matrix(1,0,0,1,18.8571,0.648659)">
            <path d="M46.603,16.507L29.471,0.736C29.162,0.451 28.757,0.293 28.336,0.293L2.149,0.293C1.223,0.293 0.474,1.041 0.474,1.965L0.474,10.672L3.825,10.672L3.825,3.637L27.682,3.637L43.793,18.469L43.793,56.418L36.746,56.418L36.746,59.762L45.468,59.762C46.393,59.762 47.142,59.013 47.142,58.09L47.142,17.736C47.142,17.269 46.946,16.823 46.603,16.507" style="fill:rgb(6,150,215);"/>
        </g>
        <g id="Fill-4" transform="matrix(1,0,0,1,0,19.4722)">
            <path d="M3.351,56.89L43.319,56.89L43.319,18.942L27.209,4.111L3.351,4.111L3.351,56.89ZM44.994,60.235L1.676,60.235C0.749,60.235 0,59.486 0,58.563L0,2.439C0,1.515 0.749,0.766 1.676,0.766L27.862,0.766C28.283,0.766 28.689,0.925 28.998,1.208L46.129,16.98C46.472,17.296 46.669,17.742 46.669,18.209L46.669,58.563C46.669,59.486 45.92,60.235 44.994,60.235Z" style="fill:rgb(6,150,215);"/>
        </g>
        <path id="Fill-7" d="M16.357,50.668L15.512,44.841L9.772,44.852L9.766,41.507L16.96,41.494L16.963,41.494C17.795,41.494 18.502,42.103 18.62,42.927L19.674,50.189L16.357,50.668Z" style="fill:rgb(6,150,215);"/>
        <path id="Fill-9" d="M23.199,66.031C20.26,66.031 17.422,65.055 15.079,63.21C12.315,61.038 10.564,57.921 10.15,54.435C9.723,50.848 10.753,47.335 13.049,44.543C13.635,43.829 14.689,43.725 15.407,44.311C16.121,44.898 16.225,45.951 15.638,46.664C13.926,48.747 13.16,51.365 13.478,54.04C13.788,56.64 15.091,58.963 17.151,60.583C19.211,62.202 21.767,62.923 24.385,62.616C25.307,62.508 26.136,63.163 26.246,64.08C26.356,64.996 25.698,65.828 24.781,65.938C24.252,66 23.725,66.031 23.199,66.031" style="fill:rgb(6,150,215);"/>
        <path id="Fill-11" d="M36.572,64.394L29.38,64.336C28.546,64.329 27.844,63.711 27.733,62.886L26.75,55.614L30.071,55.167L30.86,61.002L36.599,61.049L36.572,64.394Z" style="fill:rgb(6,150,215);"/>
        <path id="Fill-13" d="M32.034,61.924C31.655,61.924 31.273,61.796 30.961,61.534C30.251,60.941 30.158,59.886 30.752,59.178C32.485,57.113 33.278,54.5 32.985,51.824C32.4,46.452 27.531,42.547 22.163,43.142C21.233,43.232 20.417,42.578 20.316,41.661C20.217,40.742 20.881,39.917 21.8,39.817C29.024,39.037 35.531,44.255 36.316,51.461C36.709,55.052 35.645,58.555 33.32,61.326C32.99,61.721 32.514,61.924 32.034,61.924" style="fill:rgb(6,150,215);"/>
        <path id="Fill-15" d="M56.737,25.863L39.606,10.092C39.297,9.806 38.891,9.647 38.471,9.647L12.284,9.647C11.357,9.647 10.608,10.397 10.608,11.321L10.608,21.91L13.959,21.91L13.959,12.993L37.817,12.993L53.927,27.824L53.927,65.774L44.994,65.774L44.994,69.118L55.602,69.118C56.528,69.118 57.277,68.369 57.277,67.446L57.277,27.092C57.277,26.625 57.081,26.179 56.737,25.863" style="fill:rgb(6,150,215);"/>
    </g>
</svg>
